<svg width="512" height="512" viewBox="0 0 512 512" fill="none" xmlns="http://www.w3.org/2000/svg">
  <defs>
    <linearGradient id="outerGlow" x1="70" y1="40" x2="442" y2="472" gradientUnits="userSpaceOnUse">
      <stop stop-color="#FFF7EE"/>
      <stop offset="1" stop-color="#E1D1CA"/>
    </linearGradient>
    <linearGradient id="ring" x1="96" y1="80" x2="420" y2="432" gradientUnits="userSpaceOnUse">
      <stop stop-color="#6D1125"/>
      <stop offset="1" stop-color="#8A3245"/>
    </linearGradient>
    <linearGradient id="quadrant" x1="124" y1="112" x2="388" y2="396" gradientUnits="userSpaceOnUse">
      <stop stop-color="#7B2036"/>
      <stop offset="1" stop-color="#58101F"/>
    </linearGradient>
    <linearGradient id="cross" x1="152" y1="152" x2="360" y2="360" gradientUnits="userSpaceOnUse">
      <stop stop-color="#F8F1E6"/>
      <stop offset="1" stop-color="#E3D5CC"/>
    </linearGradient>
    <radialGradient id="shine" cx="0" cy="0" r="1" gradientUnits="userSpaceOnUse" gradientTransform="translate(180 146) rotate(46) scale(210 160)">
      <stop stop-color="#FFFFFF" stop-opacity="0.72"/>
      <stop offset="1" stop-color="#FFFFFF" stop-opacity="0"/>
    </radialGradient>
  </defs>
  <rect width="512" height="512" rx="110" fill="url(#outerGlow)"/>
  <circle cx="256" cy="220" r="186" fill="#FBF4EB" stroke="#E5D8CE" stroke-width="12"/>
  <circle cx="256" cy="220" r="144" fill="url(#ring)"/>
  <clipPath id="crestClip">
    <circle cx="256" cy="220" r="132"/>
  </clipPath>
  <g clip-path="url(#crestClip)">
    <rect x="124" y="88" width="264" height="264" rx="132" fill="url(#quadrant)"/>
    <rect x="248" y="88" width="16" height="264" fill="url(#cross)"/>
    <rect x="124" y="212" width="264" height="16" fill="url(#cross)"/>
    <circle cx="256" cy="220" r="24" fill="#F8F1E6"/>
    <path d="M172 160C184 148 206 146 222 156V212C206 202 184 204 172 216V160Z" fill="#CDA9B2"/>
    <path d="M222 156C210 146 188 148 176 160V216C188 204 210 202 222 212V156Z" fill="#F2E1E6" opacity="0.78"/>
    <circle cx="316" cy="164" r="36" fill="#C9A7B0"/>
    <path d="M294 164H338" stroke="#5B1322" stroke-width="8" stroke-linecap="round"/>
    <path d="M316 142C323 151 327 158 328 164C327 173 323 180 316 188C309 180 305 173 304 164C305 158 309 151 316 142Z" fill="#5B1322"/>
    <rect x="170" y="264" width="70" height="42" rx="8" fill="#A47F8A"/>
    <rect x="184" y="276" width="42" height="22" rx="4" fill="#F2E1E6"/>
    <rect x="194" y="306" width="22" height="14" rx="4" fill="#D6BDC4"/>
    <path d="M304 304C320 280 334 270 350 266C352 286 344 304 326 320C318 316 312 311 304 304Z" fill="#D6BDC4"/>
    <path d="M296 284C316 280 334 284 354 296" stroke="#5B1322" stroke-width="7" stroke-linecap="round"/>
  </g>
  <circle cx="256" cy="220" r="186" fill="url(#shine)"/>
  <rect x="72" y="406" width="368" height="56" rx="28" fill="#FFF7EE" stroke="#E5D8CE" stroke-width="6"/>
  <text x="256" y="442" text-anchor="middle" font-size="28" font-family="Georgia, 'Times New Roman', serif" font-weight="700" fill="#5F1426">P.T.I. Academic Excellence</text>
</svg>
